<?xml version="1.0" encoding="utf-8"?>
<!-- Generator: Adobe Illustrator 23.0.3, SVG Export Plug-In . SVG Version: 6.00 Build 0)  -->
<svg version="1.1" id="Icons" xmlns="http://www.w3.org/2000/svg" xmlns:xlink="http://www.w3.org/1999/xlink" x="0px" y="0px"
	 viewBox="0 0 32 32" style="enable-background:new 0 0 32 32;" xml:space="preserve">
<g>
	<path d="M11,24c-0.6,0-1,0.4-1,1v4c0,0.6,0.4,1,1,1s1-0.4,1-1v-4C12,24.4,11.6,24,11,24z"/>
	<path d="M21,24c-0.6,0-1,0.4-1,1v4c0,0.6,0.4,1,1,1s1-0.4,1-1v-4C22,24.4,21.6,24,21,24z"/>
	<path d="M20,22c0.3,0,0.5-0.1,0.7-0.3c0.4-0.4,0.4-1,0-1.4l-4-4c-0.1-0.1-0.2-0.2-0.3-0.2c-0.2-0.1-0.5-0.1-0.8,0
		c-0.1,0.1-0.2,0.1-0.3,0.2l-4,4c-0.4,0.4-0.4,1,0,1.4s1,0.4,1.4,0l2.3-2.3V30c0,0.6,0.4,1,1,1s1-0.4,1-1V19.4l2.3,2.3
		C19.5,21.9,19.7,22,20,22z"/>
</g>
<path d="M27,4H5C3.3,4,2,5.3,2,7v18c0,1.7,1.3,3,3,3h3v-3c0-1.1,0.6-2,1.4-2.5c-0.6-1.1-0.5-2.6,0.5-3.6l4-4c0.3-0.3,0.6-0.5,1-0.6
	c0.7-0.3,1.6-0.3,2.3,0c0.4,0.2,0.7,0.4,1,0.7l4,4c1,1,1.1,2.4,0.5,3.6C23.4,23,24,23.9,24,25v3h3c1.7,0,3-1.3,3-3V7
	C30,5.3,28.7,4,27,4z M7.9,8.4C7.9,8.5,7.8,8.6,7.7,8.7C7.5,8.9,7.3,9,7,9S6.5,8.9,6.3,8.7C6.1,8.5,6,8.3,6,8c0-0.3,0.1-0.5,0.3-0.7
	c0,0,0.1-0.1,0.1-0.1c0.1,0,0.1-0.1,0.2-0.1C6.7,7,6.7,7,6.8,7c0.1,0,0.3,0,0.4,0c0.1,0,0.1,0,0.2,0.1c0.1,0,0.1,0.1,0.2,0.1
	c0,0,0.1,0.1,0.1,0.1c0.1,0.1,0.2,0.2,0.2,0.3C8,7.7,8,7.9,8,8C8,8.1,8,8.3,7.9,8.4z M10.7,8.7C10.5,8.9,10.3,9,10,9
	C9.7,9,9.5,8.9,9.3,8.7C9.1,8.5,9,8.3,9,8c0-0.1,0-0.3,0.1-0.4c0.1-0.1,0.1-0.2,0.2-0.3c0.1-0.1,0.2-0.2,0.3-0.2
	C10,6.9,10.4,7,10.7,7.3c0.1,0.1,0.2,0.2,0.2,0.3C11,7.7,11,7.9,11,8C11,8.3,10.9,8.5,10.7,8.7z M13.9,8.4c-0.1,0.1-0.1,0.2-0.2,0.3
	C13.5,8.9,13.3,9,13,9c-0.1,0-0.3,0-0.4-0.1c-0.1-0.1-0.2-0.1-0.3-0.2c-0.1-0.1-0.2-0.2-0.2-0.3C12,8.3,12,8.1,12,8
	c0-0.1,0-0.3,0.1-0.4c0.1-0.1,0.1-0.2,0.2-0.3c0.4-0.4,1-0.4,1.4,0c0.1,0.1,0.2,0.2,0.2,0.3C14,7.7,14,7.9,14,8
	C14,8.1,14,8.3,13.9,8.4z"/>
</svg>
